<svg width="25" height="49" viewBox="0 0 25 49" fill="none" xmlns="http://www.w3.org/2000/svg">
<path d="M23.94 25.42C23.94 28.14 22.78 30.36 20.46 32.08C22.62 33.84 23.7 36.2 23.7 39.16C23.7 42.08 22.62 44.38 20.46 46.06C18.3 47.74 15.68 48.58 12.6 48.58C9.56 48.58 7.02 47.86 4.98 46.42C2.94 45.02 1.42 43.16 0.42 40.84L3.3 38.8C4.18 40.96 5.44 42.6 7.08 43.72C8.72 44.88 10.6 45.46 12.72 45.46C14.76 45.46 16.52 44.92 18 43.84C19.48 42.8 20.22 41.3 20.22 39.34C20.22 37.46 19.52 35.92 18.12 34.72C16.76 33.52 14.14 32.46 10.26 31.54C7.18 30.82 4.82 29.72 3.18 28.24C1.54 26.72 0.72 24.94 0.72 22.9C0.72 20.26 1.88 18.12 4.2 16.48C2.04 14.6 0.96 12.3 0.96 9.58C0.96 6.66 2.04 4.36 4.2 2.68C6.36 0.999997 8.98 0.159997 12.06 0.159997C17.9 0.159997 21.96 2.74 24.24 7.9L21.36 9.94C20.48 7.78 19.22 6.14 17.58 5.02C15.94 3.86 14.06 3.28 11.94 3.28C9.9 3.28 8.14 3.82 6.66 4.9C5.18 5.98 4.44 7.52 4.44 9.52C4.44 11.24 5.14 12.76 6.54 14.08C7.94 15.36 10.56 16.42 14.4 17.26C17.84 18.06 20.28 19.12 21.72 20.44C23.2 21.76 23.94 23.42 23.94 25.42ZM12.36 20.2C10.08 19.76 8.14 19.08 6.54 18.16C5.06 19.28 4.32 20.68 4.32 22.36C4.32 23.88 4.9 25.12 6.06 26.08C7.26 27 9.3 27.82 12.18 28.54C14.26 29.06 16.14 29.7 17.82 30.46C19.5 29.22 20.34 27.66 20.34 25.78C20.34 24.46 19.72 23.36 18.48 22.48C17.28 21.56 15.24 20.8 12.36 20.2Z" fill="black"/>
</svg>
